<?xml version="1.0" encoding="utf-8"?>
<svg id="master-artboard" viewBox="0 0 1400 980" version="1.1" xmlns="http://www.w3.org/2000/svg" x="0px" y="0px" style="enable-background:new 0 0 1400 980;" width="1400px" height="980px"><defs><style id="ee-google-fonts">@import url(https://fonts.googleapis.com/css?family=Fjalla+One:400|Roboto:100,100italic,300,300italic,400,400italic,500,500italic,700,700italic,900,900italic);</style></defs>











































<g transform="matrix(0.9999999999999999, 0, 0, 0.9999999999999999, 1.8189894035458565e-12, 4.547473508864641e-13)">
		<path class="st13" d="M448.4,599.9" style="fill: rgb(223, 243, 251);"/>
	</g>





















































<g transform="matrix(1.9140625, 0, 0, 1.9140625, 210.00000452967515, 0.000004529675152298296)"><title>Moon</title><path d="M264 480A232 232 0 0132 248c0-94 54-178.28 137.61-214.67a16 16 0 0121.06 21.06C181.07 76.43 176 104.66 176 136c0 110.28 89.72 200 200 200 31.34 0 59.57-5.07 81.61-14.67a16 16 0 0121.06 21.06C442.28 426 358 480 264 480z" style="fill: rgb(255, 255, 255);"/></g></svg>